HIERARCHY
ROOT Pelvis
{
	OFFSET 0.000000 0.000000 0.000000
	CHANNELS 6 Xposition Yposition Zposition Xrotation Yrotation Zrotation
	JOINT LeftUpLeg_virtual
	{
		OFFSET 0.000000 0.000000 0.000000
		CHANNELS 3 Xrotation Yrotation Zrotation
		JOINT LeftUpLeg
		{
			OFFSET 8.479700 -4.795502 -0.379100
			CHANNELS 3 Xrotation Yrotation Zrotation
			JOINT LeftLeg
			{
				OFFSET 0.024144 -32.555107 0.112900
				CHANNELS 3 Xrotation Yrotation Zrotation
				JOINT LeftFoot
				{
					OFFSET -0.024144 -32.638630 -3.012600
					CHANNELS 3 Xrotation Yrotation Zrotation
					JOINT LeftToeBase
					{
						OFFSET 0.970200 -13.225400 11.864200
						CHANNELS 3 Xrotation Yrotation Zrotation
						End Site
						{
							OFFSET 0 0 0
						}
					}
				}
			}
		}
	}
	JOINT RightUpLeg_virtual
	{
		OFFSET 0.000000 0.000000 0.000000
		CHANNELS 3 Xrotation Yrotation Zrotation
		JOINT RightUpLeg
		{
			OFFSET -8.479700 -4.795502 -0.379100
			CHANNELS 3 Xrotation Yrotation Zrotation
			JOINT RightLeg
			{
				OFFSET -0.023144 -32.555092 0.112900
				CHANNELS 3 Xrotation Yrotation Zrotation
				JOINT RightFoot
				{
					OFFSET 0.023144 -32.638641 -3.012700
					CHANNELS 3 Xrotation Yrotation Zrotation
					JOINT RightToeBase
					{
						OFFSET -0.970200 -13.225400 11.864200
						CHANNELS 3 Xrotation Yrotation Zrotation
						End Site
						{
							OFFSET 0 0 0
						}
					}
				}
			}
		}
	}
	JOINT Hips_virtual
	{
		OFFSET 0.000000 0.000000 0.000000
		CHANNELS 3 Xrotation Yrotation Zrotation
		JOINT Hips
		{
			OFFSET -0.000000 -0.000000 -0.000000
			CHANNELS 3 Xrotation Yrotation Zrotation
			JOINT Spine
			{
				OFFSET 0.000000 7.722000 1.166200
				CHANNELS 3 Xrotation Yrotation Zrotation
				JOINT Spine1
				{
					OFFSET 0.000000 12.024101 0.248800
					CHANNELS 3 Xrotation Yrotation Zrotation
					JOINT Spine2
					{
						OFFSET 0.000000 11.502998 -0.491200
						CHANNELS 3 Xrotation Yrotation Zrotation
						JOINT Neck_virtual
						{
							OFFSET 0.000000 0.000000 0.000000
							CHANNELS 3 Xrotation Yrotation Zrotation
							JOINT Neck
							{
								OFFSET 0.000000 18.430702 -3.123100
								CHANNELS 3 Xrotation Yrotation Zrotation
								JOINT Head
								{
									OFFSET 0.000000 9.051102 1.034000
									CHANNELS 3 Xrotation Yrotation Zrotation
									End Site
									{
										OFFSET 0 0 0
									}
								}
							}
						}
						JOINT LeftShoulder_virtual
						{
							OFFSET 0.000000 0.000000 0.000000
							CHANNELS 3 Xrotation Yrotation Zrotation
							JOINT LeftShoulder
							{
								OFFSET 6.197800 13.665199 -4.064700
								CHANNELS 3 Xrotation Yrotation Zrotation
								JOINT LeftArm
								{
									OFFSET 7.778100 -0.187103 -1.709300
									CHANNELS 3 Xrotation Yrotation Zrotation
									JOINT LeftForeArm
									{
										OFFSET 22.049376 0.000000 0.000000
										CHANNELS 3 Xrotation Yrotation Zrotation
										JOINT LeftHand
										{
											OFFSET 23.009392 0.000000 0.000000
											CHANNELS 3 Xrotation Yrotation Zrotation
											End Site
											{
												OFFSET 0 0 0
											}
										}
									}
								}
							}
						}
						JOINT RightShoulder_virtual
						{
							OFFSET 0.000000 0.000000 0.000000
							CHANNELS 3 Xrotation Yrotation Zrotation
							JOINT RightShoulder
							{
								OFFSET -6.197800 13.665199 -4.064700
								CHANNELS 3 Xrotation Yrotation Zrotation
								JOINT RightArm
								{
									OFFSET -7.778100 -0.187103 -1.709300
									CHANNELS 3 Xrotation Yrotation Zrotation
									JOINT RightForeArm
									{
										OFFSET -22.049376 0.000000 0.000000
										CHANNELS 3 Xrotation Yrotation Zrotation
										JOINT RightHand
										{
											OFFSET -23.009392 0.000000 0.000000
											CHANNELS 3 Xrotation Yrotation Zrotation
											End Site
											{
												OFFSET 0 0 0
											}
										}
									}
								}
							}
						}
					}
				}
			}
		}
	}
}
MOTION
Frames: 6
Frame Time: 0.03333333
0.196614 101.327316 -1.134239 0.000000 0.000000 0.000000 3.724210 -37.057529 3.428139 -80.935727 -19.832738 30.200009 66.681566 1.433813 7.806170 12.024390 -1.326766 1.951971 0.000000 0.000000 0.000000 3.724210 -37.057529 3.428139 -119.834795 -42.607243 -2.332328 124.169465 18.485589 -13.361628 15.951521 -0.344361 26.421311 0.000000 0.000000 0.000000 3.724210 -37.057529 3.428139 0.000000 0.000002 0.000000 31.624947 -4.980896 -10.253221 14.129380 0.964741 -3.082681 0.000000 0.000000 0.000000 14.083560 0.916927 -3.297921 -8.677503 21.443466 -12.816582 0.000000 0.000000 0.000000 14.083560 0.916927 -3.297921 11.474072 -16.374147 4.408435 -62.668796 -4.844728 -3.758200 45.767653 -24.019412 29.511127 0.000000 0.000000 0.000000 14.083560 0.916927 -3.297921 18.189219 24.092148 -9.603802 -33.453122 6.374207 2.980965 -41.939233 39.311147 29.275898 0.000000 0.000000 0.000000 
0.201786 101.327148 -1.146837 0.000000 0.000000 0.000000 3.749969 -37.160529 3.478349 -80.927080 -19.818069 30.218949 66.658015 1.376773 7.776196 12.051835 -1.206727 1.855998 0.000000 0.000000 0.000000 3.749969 -37.160529 3.478349 -119.643959 -42.632538 -2.339985 124.060032 18.532021 -13.373697 15.813473 -0.364946 26.327685 0.000000 0.000000 0.000000 3.749969 -37.160529 3.478349 0.000000 0.000000 0.000000 31.630739 -4.992798 -10.259260 14.124494 0.962687 -3.082691 0.000000 0.000000 0.000000 14.081431 0.915137 -3.297779 -8.636876 21.467484 -12.828431 0.000000 0.000000 0.000000 14.081431 0.915137 -3.297779 11.372203 -16.443322 3.967055 -62.208072 -4.571398 -3.790339 45.710450 -23.896267 29.381210 0.000000 0.000000 0.000000 14.081431 0.915137 -3.297779 18.029153 24.259182 -9.213509 -32.985535 6.584519 2.975912 -41.769800 39.073672 29.004699 0.000000 0.000000 0.000000 
0.205157 101.328812 -1.161911 0.000000 0.000000 0.000000 3.776856 -37.251066 3.530559 -80.906801 -19.782726 30.228310 66.624370 1.351389 7.761579 11.991311 -1.120260 1.815115 0.000000 0.000000 0.000000 3.776856 -37.251066 3.530559 -119.427470 -42.656123 -2.343619 123.951896 18.603084 -13.386857 15.643898 -0.391061 26.223267 0.000000 0.000000 0.000000 3.776856 -37.251066 3.530559 0.000000 -0.000002 0.000000 31.623154 -5.004600 -10.262293 14.121957 0.959995 -3.082253 0.000000 0.000000 0.000000 14.068812 0.912808 -3.297118 -8.610282 21.493203 -12.821325 0.000000 0.000000 0.000000 14.068812 0.912808 -3.297118 11.267113 -16.494260 3.552173 -61.836387 -4.277158 -3.867889 45.655307 -23.778487 29.256658 0.000000 0.000000 0.000000 14.068812 0.912808 -3.297118 17.871450 24.380048 -8.840637 -32.509668 6.730319 2.966674 -41.608099 38.845164 28.745701 0.000000 0.000000 0.000000 
0.207390 101.329147 -1.174238 0.000000 0.000000 0.000000 3.804767 -37.320123 3.580758 -80.875751 -19.755250 30.242397 66.566511 1.339171 7.755634 11.984940 -1.075379 1.737751 0.000000 0.000000 0.000000 3.804767 -37.320123 3.580758 -119.203958 -42.665163 -2.339354 123.834540 18.642344 -13.399381 15.484008 -0.417953 26.170927 0.000000 0.000000 0.000000 3.804767 -37.320123 3.580758 0.000000 0.000001 0.000000 31.610051 -5.014304 -10.262717 14.106486 0.954762 -3.080998 0.000000 0.000000 0.000000 14.049160 0.908815 -3.295747 -8.563380 21.515700 -12.819801 0.000000 0.000000 0.000000 14.049160 0.908815 -3.295747 11.178842 -16.526054 3.162651 -61.569429 -3.861276 -3.799282 45.619715 -23.701721 29.176936 0.000000 0.000000 0.000000 14.049160 0.908815 -3.295747 17.715214 24.468466 -8.495867 -32.128865 6.751248 2.910647 -41.451421 38.621380 28.494033 0.000000 0.000000 0.000000 
0.208183 101.330811 -1.187311 0.000000 0.000000 0.000000 3.833774 -37.391939 3.634032 -80.832120 -19.710317 30.254101 66.500600 1.313273 7.742352 11.931068 -1.013924 1.657825 0.000000 0.000000 0.000000 3.833774 -37.391939 3.634032 -118.966705 -42.684369 -2.328656 123.721159 18.706049 -13.412740 15.323866 -0.448053 26.081477 0.000000 0.000000 0.000000 3.833774 -37.391939 3.634032 0.000000 0.000000 0.000000 31.593907 -5.023497 -10.259542 14.084170 0.946255 -3.078775 0.000000 0.000000 0.000000 14.024736 0.902263 -3.293468 -8.559982 21.556432 -12.797782 0.000000 0.000000 0.000000 14.024736 0.902263 -3.293468 11.087244 -16.530110 2.819706 -61.258853 -3.422808 -3.756274 45.583535 -23.623777 29.096169 0.000000 0.000000 0.000000 14.024736 0.902263 -3.293468 17.522801 24.569654 -8.065055 -31.766578 6.787540 2.888680 -41.306279 38.411761 28.260102 0.000000 0.000000 0.000000 
0.206502 101.330727 -1.197266 0.000000 0.000000 0.000000 3.863291 -37.432763 3.683773 -80.782847 -19.676115 30.261758 66.412108 1.343285 7.758728 11.927485 -1.046788 1.617074 0.000000 0.000000 0.000000 3.863291 -37.432763 3.683773 -118.739205 -42.678051 -2.334962 123.605865 18.766211 -13.425906 15.152882 -0.473518 26.061961 0.000000 0.000000 0.000000 3.863291 -37.432763 3.683773 0.000000 -0.000001 0.000000 31.573485 -5.030622 -10.252611 14.055851 0.934641 -3.075681 0.000000 0.000000 0.000000 13.995688 0.893353 -3.290323 -8.515403 21.594003 -12.772928 0.000000 0.000000 0.000000 13.995688 0.893353 -3.290323 10.988273 -16.524917 2.425654 -60.975250 -2.925641 -3.672642 45.549070 -23.549490 29.019572 0.000000 0.000000 0.000000 13.995688 0.893353 -3.290323 17.350876 24.652292 -7.676951 -31.331044 6.716264 2.813165 -41.168528 38.210759 28.037385 0.000000 0.000000 0.000000 
